<?xml version="1.0" encoding="UTF-8"?>
<!DOCTYPE svg PUBLIC "-//W3C//DTD SVG 1.1//EN" "http://www.w3.org/Graphics/SVG/1.1/DTD/svg11.dtd">
<svg xmlns="http://www.w3.org/2000/svg" version="1.1" width="3000px" height="3000px" style="shape-rendering:geometricPrecision; text-rendering:geometricPrecision; image-rendering:optimizeQuality; fill-rule:evenodd; clip-rule:evenodd" xmlns:xlink="http://www.w3.org/1999/xlink">
<g><path style="opacity:0.999" fill="#000000" d="M 1443.5,-0.5 C 1480.83,-0.5 1518.17,-0.5 1555.5,-0.5C 1900.84,15.7752 2205.51,133.942 2469.5,354C 2674.85,529.437 2823.19,744.604 2914.5,999.5C 1971.17,999.5 1027.83,999.5 84.5,999.5C 181.199,729.83 340.866,505.33 563.5,326C 821.077,123.486 1114.41,14.6522 1443.5,-0.5 Z"/></g>
<g><path style="opacity:1" fill="#dc0000" d="M 84.5,999.5 C 1027.83,999.5 1971.17,999.5 2914.5,999.5C 2965.18,1143.23 2993.51,1291.23 2999.5,1443.5C 2999.5,1480.83 2999.5,1518.17 2999.5,1555.5C 2993.51,1707.78 2965.18,1855.78 2914.5,1999.5C 1971.17,1999.5 1027.83,1999.5 84.5,1999.5C 33.8217,1855.78 5.4884,1707.78 -0.5,1555.5C -0.5,1518.17 -0.5,1480.83 -0.5,1443.5C 5.4884,1291.22 33.8217,1143.22 84.5,999.5 Z"/></g>
<g><path style="opacity:0.999" fill="#fece00" d="M 84.5,1999.5 C 1027.83,1999.5 1971.17,1999.5 2914.5,1999.5C 2817.8,2269.17 2658.13,2493.67 2435.5,2673C 2177.93,2875.51 1884.59,2984.35 1555.5,2999.5C 1518.17,2999.5 1480.83,2999.5 1443.5,2999.5C 1098.16,2983.22 793.495,2865.06 529.5,2645C 324.146,2469.56 175.813,2254.4 84.5,1999.5 Z"/></g>
</svg>
